<?xml version="1.0" encoding="UTF-8"?>
<!DOCTYPE svg PUBLIC "-//W3C//DTD SVG 1.1//EN" "http://www.w3.org/Graphics/SVG/1.1/DTD/svg11.dtd">
<svg xmlns="http://www.w3.org/2000/svg" version="1.1" width="426px" height="250px" style="shape-rendering:geometricPrecision; text-rendering:geometricPrecision; image-rendering:optimizeQuality; fill-rule:evenodd; clip-rule:evenodd" xmlns:xlink="http://www.w3.org/1999/xlink">
<g><path style="opacity:0.901" fill="#1289f9" d="M 338.5,51.5 C 336.952,51.8212 336.285,52.8212 336.5,54.5C 334.18,59.1401 331.847,63.8068 329.5,68.5C 351.104,79.4693 372.771,90.136 394.5,100.5C 396.181,102.008 398.181,103.008 400.5,103.5C 417.79,110.267 417.457,110.934 399.5,105.5C 395.183,103.06 390.517,101.393 385.5,100.5C 365.417,91.9731 345.084,84.1397 324.5,77C 301.727,115.585 278.394,153.751 254.5,191.5C 274.088,151.84 294.754,112.34 316.5,73C 296.055,63.0183 275.388,53.5183 254.5,44.5C 252.421,42.127 249.754,40.7936 246.5,40.5C 235.731,35.0652 224.731,29.8985 213.5,25C 217.316,24.5992 220.983,25.2658 224.5,27C 234.156,30.9391 243.822,34.7724 253.5,38.5C 255.919,40.8624 258.919,41.8624 262.5,41.5C 281.796,49.7714 301.296,57.7714 321,65.5C 324.609,61.2769 327.443,56.6102 329.5,51.5C 331.048,51.1788 331.715,50.1788 331.5,48.5C 338.908,36.6906 346.574,25.024 354.5,13.5C 354.833,13.8333 355.167,14.1667 355.5,14.5C 349.542,26.7463 343.875,39.0796 338.5,51.5 Z M 329.5,51.5 C 327.443,56.6102 324.609,61.2769 321,65.5C 301.296,57.7714 281.796,49.7714 262.5,41.5C 285.525,39.6343 307.858,42.9676 329.5,51.5 Z"/></g>
<g><path style="opacity:0.766" fill="#2a2b2b" d="M 331.5,48.5 C 331.715,50.1788 331.048,51.1788 329.5,51.5C 307.858,42.9676 285.525,39.6343 262.5,41.5C 258.919,41.8624 255.919,40.8624 253.5,38.5C 265.735,36.0499 278.069,35.8833 290.5,38C 304.467,40.4082 318.133,43.9082 331.5,48.5 Z"/></g>
<g><path style="opacity:0.807" fill="#2a2a2b" d="M 246.5,40.5 C 249.754,40.7936 252.421,42.127 254.5,44.5C 250.583,45.2483 248.083,47.5817 247,51.5C 245.993,56.1113 246.66,60.4446 249,64.5C 259.402,77.6319 272.235,87.7986 287.5,95C 288.833,95.6667 288.833,96.3333 287.5,97C 268.135,91.0031 252.635,79.5031 241,62.5C 236.373,53.4383 238.206,46.105 246.5,40.5 Z"/></g>
<g><path style="opacity:0.819" fill="#2b2b2b" d="M 338.5,51.5 C 355.372,58.2673 371.038,67.1006 385.5,78C 390.912,82.7412 395.579,88.0745 399.5,94C 397.167,94.6667 394.833,94.6667 392.5,94C 382.607,80.7752 370.274,70.4419 355.5,63C 349.268,59.87 342.934,57.0367 336.5,54.5C 336.285,52.8212 336.952,51.8212 338.5,51.5 Z"/></g>
<g><path style="opacity:0.972" fill="#128afa" d="M 51.5,100.5 C 68.8365,100.333 86.1699,100.5 103.5,101C 108.924,103.017 110.758,106.85 109,112.5C 107,117.167 105,121.833 103,126.5C 100.408,129.762 97.2413,132.262 93.5,134C 96.6829,135.018 98.0162,137.185 97.5,140.5C 96.0467,149.706 92.38,157.873 86.5,165C 84.1123,166.861 81.4456,168.194 78.5,169C 60.1667,169.667 41.8333,169.667 23.5,169C 32.9342,146.195 42.2675,123.362 51.5,100.5 Z M 63.5,114.5 C 71.5069,114.334 79.5069,114.5 87.5,115C 88.5598,119.795 86.8931,123.462 82.5,126C 74.8406,126.5 67.1739,126.666 59.5,126.5C 60.6318,122.438 61.9651,118.438 63.5,114.5 Z M 53.5,140.5 C 61.5533,140.225 69.5533,140.725 77.5,142C 78.0219,142.561 78.3552,143.228 78.5,144C 77.3333,146.833 76.1667,149.667 75,152.5C 74.0975,153.701 72.9308,154.535 71.5,155C 63.4792,155.832 55.4792,155.665 47.5,154.5C 49.5149,149.807 51.5149,145.141 53.5,140.5 Z"/></g>
<g><path style="opacity:0.962" fill="#128afa" d="M 134.5,100.5 C 151.167,100.5 167.833,100.5 184.5,100.5C 183.331,105.174 181.664,109.674 179.5,114C 165.833,114.333 152.167,114.667 138.5,115C 134.35,117.776 131.516,121.609 130,126.5C 127,134.167 124,141.833 121,149.5C 120.257,151.441 120.424,153.274 121.5,155C 135.163,155.5 148.829,155.667 162.5,155.5C 161.331,160.174 159.664,164.674 157.5,169C 140.167,169.667 122.833,169.667 105.5,169C 101.474,168.112 99.4739,165.612 99.5,161.5C 104.202,145.426 110.035,129.76 117,114.5C 121.265,107.721 127.098,103.054 134.5,100.5 Z"/></g>
<g><path style="opacity:0.97" fill="#128afa" d="M 192.5,100.5 C 200.833,100.5 209.167,100.5 217.5,100.5C 216.291,113.536 215.125,126.536 214,139.5C 221.97,126.699 230.136,114.032 238.5,101.5C 247.5,100.167 256.5,100.167 265.5,101.5C 256.304,123.753 247.304,146.087 238.5,168.5C 232.528,169.664 226.528,169.83 220.5,169C 225.088,159.013 228.921,148.846 232,138.5C 225.167,148.667 218.333,158.833 211.5,169C 205.175,169.5 198.842,169.666 192.5,169.5C 194.082,158.512 195.249,147.512 196,136.5C 191.667,147.167 187.333,157.833 183,168.5C 177.221,169.807 171.388,169.807 165.5,168.5C 174.898,145.968 183.898,123.302 192.5,100.5 Z"/></g>
<g><path style="opacity:0.908" fill="#2a2a2a" d="M 287.5,100.5 C 290.572,100.183 293.572,100.516 296.5,101.5C 293.757,107.992 290.257,113.992 286,119.5C 279.241,136.351 271.408,152.684 262.5,168.5C 258.492,169.59 255.325,168.256 253,164.5C 252.333,161.5 252.333,158.5 253,155.5C 257.137,144.089 261.47,132.755 266,121.5C 269.811,110.854 276.977,103.854 287.5,100.5 Z"/></g>
<g><path style="opacity:0.925" fill="#2a2a2a" d="M 314.5,100.5 C 320.262,100.149 325.928,100.649 331.5,102C 334.722,104.108 336.388,107.108 336.5,111C 331.905,127.453 325.738,143.287 318,158.5C 314.359,163.578 309.525,167.078 303.5,169C 292.833,169.667 282.167,169.667 271.5,169C 274.364,164.967 277.031,160.801 279.5,156.5C 285.807,155.669 292.141,155.169 298.5,155C 300.286,154.215 301.786,153.049 303,151.5C 307.195,141.914 311.195,132.248 315,122.5C 315.814,120.098 315.647,117.765 314.5,115.5C 311.891,114.77 309.224,114.27 306.5,114C 309.316,109.527 311.982,105.027 314.5,100.5 Z"/></g>
<g><path style="opacity:0.942" fill="#2a2a2a" d="M 385.5,100.5 C 390.517,101.393 395.183,103.06 399.5,105.5C 393.346,121.145 387.18,136.812 381,152.5C 376.869,165.322 368.036,171.322 354.5,170.5C 343.503,169.9 332.503,169.233 321.5,168.5C 323.167,164.5 324.833,160.5 326.5,156.5C 337.485,155.668 348.485,155.168 359.5,155C 360.667,153.833 361.833,152.667 363,151.5C 369.333,135.5 375.667,119.5 382,103.5C 382.422,101.574 383.589,100.574 385.5,100.5 Z"/></g>
<g><path style="opacity:0.86" fill="#282e36" d="M 394.5,100.5 C 396.924,100.192 399.257,100.526 401.5,101.5C 401.137,102.183 400.804,102.85 400.5,103.5C 398.181,103.008 396.181,102.008 394.5,100.5 Z"/></g>
</svg>
